<?xml version="1.0" standalone="no"?>
<!DOCTYPE svg PUBLIC "-//W3C//DTD SVG 20010904//EN"
 "http://www.w3.org/TR/2001/REC-SVG-20010904/DTD/svg10.dtd">
<svg version="1.0" xmlns="http://www.w3.org/2000/svg"
 width="300.000000pt" height="302.000000pt" viewBox="0 0 300.000000 302.000000"
 preserveAspectRatio="xMidYMid meet">
<metadata>
Created by potrace 1.10, written by Peter Selinger 2001-2011
</metadata>
<rect width="100%" height="100%" fill="#ffffff" />
<g transform="translate(0.000000,302.000000) scale(0.100000,-0.100000)"
fill="#ffffff" stroke="#ffffff">
<path fill="#f83f3f" stroke="#f83f3f" d="M70 2300 l0 -650 650 0 650 0 0 650 0 650 -650 0 -650 0 0 -650z
m772 453 c3 -149 5 -166 22 -179 15 -10 54 -14 157 -14 108 0 139 -3 149 -15
12 -15 11 -207 -1 -220 -4 -3 -70 -7 -149 -8 -196 -3 -180 28 -180 -343 l0
-294 -120 0 -119 0 -3 305 c-2 233 -6 307 -16 317 -9 9 -58 14 -167 16 -128 3
-154 6 -157 19 -2 8 -1 61 2 117 l5 101 152 5 c106 3 156 9 165 18 9 9 14 60
16 178 l3 165 119 -2 119 -1 3 -165z m-272 -4 l0 -159 -175 0 -175 0 0 -150 0
-150 175 0 175 0 0 -300 0 -300 -225 0 -225 0 0 610 0 611 225 -2 225 -1 0
-159z m750 -449 l0 -610 -225 0 -225 0 0 300 0 300 170 0 170 0 0 150 0 150
-170 0 -170 0 0 159 0 159 225 1 225 2 0 -611z"/>
<path fill="#2866ad" stroke="#2866ad" d="M1630 2298 l0 -653 645 0 645 0 0 653 0 652 -645 0 -645 0 0 -652z
m1125 565 c-19 -32 -35 -66 -35 -75 0 -9 -5 -29 -11 -45 l-10 -28 -16 32 c-25
53 -76 56 -111 5 -35 -50 -112 -307 -112 -369 1 -46 16 -10 60 146 43 149 75
227 97 235 26 10 43 -6 43 -41 0 -45 -29 -112 -112 -257 -63 -112 -74 -137
-50 -122 15 9 95 133 126 194 33 66 42 67 16 2 -47 -119 -98 -206 -197 -338
-68 -89 -69 -94 -53 -200 8 -62 11 -66 90 -148 45 -47 90 -104 100 -127 l19
-42 -164 -3 c-90 -1 -240 -1 -333 0 l-170 3 28 60 c32 70 56 98 126 148 56 40
59 47 70 154 l6 71 -44 49 c-124 134 -220 314 -304 570 -20 60 -44 122 -54
140 -10 17 -16 34 -13 37 4 3 239 6 524 6 l518 0 -34 -57z m-1040 31 c23 -23
39 -60 65 -144 73 -244 212 -508 315 -599 l37 -32 -7 -87 -7 -87 -60 -40 c-70
-46 -110 -96 -133 -166 l-17 -49 -114 0 -114 0 -2 606 c-2 333 -1 608 1 610 8
8 20 4 36 -12z m1165 -594 l0 -610 -124 0 -124 0 -23 48 c-13 26 -59 83 -105
130 l-83 84 -7 84 -7 84 42 45 c108 117 221 331 272 515 17 63 36 127 41 141
15 42 64 89 92 89 l26 0 0 -610z"/>
<path fill="#f3a646" stroke="#f3a646" d="M928 1404 l-3 -25 -427 1 -428 1 0 -656 0 -655 650 0 650 0 0 656 0
657 -70 -5 c-38 -3 -70 -3 -70 0 0 3 10 17 23 31 18 20 13 18 -25 -9 -53 -37
-64 -36 -49 4 14 35 -1 33 -32 -3 l-25 -30 -6 30 c-7 38 -21 37 -42 -2 -12
-25 -18 -29 -25 -18 -5 8 -9 22 -9 32 0 27 -28 20 -45 -13 -9 -16 -19 -30 -24
-30 -5 0 -14 14 -20 30 -12 37 -19 38 -23 4z m135 -46 c61 5 97 1 97 -9 0 -5
-20 -37 -45 -72 -94 -127 -235 -454 -235 -541 0 -96 138 -81 280 31 39 30 73
53 76 50 11 -10 -58 -167 -106 -239 -91 -138 -199 -223 -335 -265 -50 -15 -90
-17 -250 -15 -241 3 -307 -12 -394 -87 -13 -12 -28 -21 -33 -21 -14 0 -9 17 7
23 8 4 28 33 44 66 17 33 51 81 76 107 25 27 45 55 45 63 0 7 -18 42 -39 76
-123 195 -102 247 179 450 63 46 142 111 175 144 33 33 63 61 68 61 31 0 -27
-132 -87 -198 -67 -74 -97 -115 -131 -180 -23 -44 -26 -57 -17 -77 15 -33 52
-41 93 -20 76 40 196 178 291 335 60 100 122 254 114 286 -6 21 -3 24 21 24
16 0 35 5 43 10 8 5 22 7 30 3 8 -3 23 -5 33 -5z m-153 -37 c0 -5 -16 -48 -35
-96 -66 -164 -174 -325 -290 -434 -81 -75 -137 -95 -120 -42 11 36 100 165
139 201 49 45 79 99 105 184 21 68 28 170 13 180 -4 2 -21 -19 -37 -47 -41
-73 -143 -171 -277 -265 -220 -155 -263 -209 -256 -316 4 -67 30 -130 82 -197
l32 -42 -38 -35 c-55 -50 -76 -82 -92 -143 -13 -49 -15 -1 -15 504 l-1 557
395 0 c219 0 395 -4 395 -9z m410 -175 l0 -184 -103 -98 c-119 -114 -188 -154
-266 -154 l-49 0 20 73 c42 150 122 323 214 465 l54 82 65 0 65 0 0 -184z m0
-618 l0 -413 -600 0 c-330 0 -600 2 -600 4 0 2 14 20 31 42 18 24 56 51 97 71
l66 33 231 0 c222 1 232 2 297 26 159 61 274 174 366 358 32 65 70 157 83 205
13 47 25 86 26 86 2 0 3 -186 3 -412z"/>
<path fill="#cc4694" stroke="#cc4694" d="M1630 1186 c0 -160 -3 -196 -15 -206 -19 -16 -19 -64 0 -84 13 -13
15 -68 13 -421 l-3 -405 653 0 652 0 0 401 c0 386 1 402 20 426 11 14 20 33
20 43 0 9 -9 25 -20 35 -19 17 -20 31 -20 212 l0 193 -650 0 -650 0 0 -194z
m1250 -28 c0 -137 -3 -164 -17 -180 -9 -10 -17 -33 -18 -51 -1 -24 -27 -65
-111 -174 l-109 -142 -7 42 c-9 52 -8 291 1 303 3 5 20 14 36 19 24 8 31 17
33 44 6 62 -55 94 -98 51 -20 -20 -27 -64 -11 -74 18 -12 -118 -326 -142 -330
-9 -1 -56 114 -112 277 -19 53 -30 97 -25 97 17 0 50 44 50 67 0 31 -43 73
-75 73 -60 0 -87 -81 -41 -123 24 -23 24 -23 10 -97 -20 -107 -42 -176 -76
-243 l-30 -60 -25 44 c-13 24 -51 102 -82 174 -47 106 -56 134 -48 152 12 27
-11 68 -43 78 -26 8 -66 -16 -75 -46 -9 -26 23 -73 52 -77 18 -3 21 -13 27
-94 8 -114 7 -238 -2 -260 -6 -14 -16 -5 -53 45 -26 34 -76 98 -111 142 -58
72 -64 85 -60 117 3 29 0 39 -17 50 -20 12 -21 21 -21 175 l0 163 600 0 600 0
0 -162z m-572 -47 c5 -31 -25 -56 -45 -40 -14 12 -18 51 -6 63 16 15 48 1 51
-23z m-358 -70 c0 -27 -13 -33 -35 -17 -21 15 -12 36 16 36 12 0 19 -7 19 -19z
m703 -10 c6 -24 0 -31 -25 -31 -13 0 -18 7 -18 25 0 31 35 35 43 6z m-966
-135 c1 -37 13 -80 36 -133 46 -104 92 -247 116 -356 11 -49 21 -91 24 -93 11
-12 212 -64 288 -75 158 -23 352 5 508 72 l46 19 27 111 c15 60 52 171 82 247
30 75 53 139 50 141 -24 24 -99 -152 -173 -405 -21 -70 -22 -72 -72 -93 -137
-59 -321 -81 -480 -57 -113 18 -238 55 -249 75 -4 9 -18 59 -31 111 -21 91
-34 133 -77 248 -28 73 -9 66 64 -26 101 -129 134 -106 135 95 l0 118 50 -101
c27 -56 61 -113 75 -128 24 -24 29 -25 48 -13 12 8 31 32 43 53 23 40 63 155
63 183 1 9 6 26 13 39 12 21 17 12 61 -108 49 -133 76 -180 101 -180 23 0 54
40 92 118 20 40 39 70 44 65 4 -4 9 -42 10 -84 1 -42 8 -91 15 -108 24 -58 51
-41 165 104 93 118 119 158 119 183 0 13 5 32 11 43 8 16 13 18 25 8 19 -16
18 -35 -8 -88 -22 -45 -23 -56 -26 -403 l-3 -358 -599 0 -600 0 0 365 c0 237
-4 365 -10 365 -5 0 -10 6 -10 14 0 7 -6 26 -14 41 -11 21 -12 33 -3 52 9 21
12 22 26 8 9 -9 16 -36 18 -69z"/>
</g>
</svg>
